<svg xmlns="http://www.w3.org/2000/svg" viewBox="0 0 96 96"><defs><linearGradient id="g" x1="0" x2="1" y1="0" y2="1"><stop stop-color="#075c5c"/><stop offset="1" stop-color="#a72756"/></linearGradient></defs><rect width="96" height="96" rx="26" fill="#fff8ec"/><path d="M48 15c7 12 17 16 31 14-3 13-10 21-22 24 10 7 15 17 14 29-12-1-20-7-25-18-6 10-15 15-27 14 1-12 7-21 18-26-11-4-18-12-20-24 13 2 23-2 31-13z" fill="url(#g)" opacity=".94"/><circle cx="48" cy="48" r="10" fill="#fff8ec"/><path d="M48 31v34M31 48h34" stroke="#fff8ec" stroke-width="4" stroke-linecap="round"/></svg>